# 3ds Max Wavefront OBJ Exporter v0.97b - (c)2007 guruware
# File Created: 21.07.2021 13:21:52

mtllib Turbina1.mtl

#
# object Turbina
#

v  3.7345 3.8821 11.8189
v  -3.3983 3.8821 -14.8011
v  -3.3983 20.4175 -14.8011
v  3.7345 25.9293 11.8189
v  2.5936 3.8821 12.1246
v  2.5936 25.9293 12.1246
v  -4.5391 20.4175 -14.4954
v  -4.5391 3.8821 -14.4954
v  4.6126 2.6773 11.8189
v  -2.2772 4.5233 -14.8011
v  2.0025 20.4953 -14.8013
v  10.3188 23.9733 11.8188
v  3.5106 2.9725 12.1246
v  9.2168 24.2685 12.1245
v  0.9005 20.7905 -14.4955
v  -3.3792 4.8185 -14.4955
v  5.1488 1.2862 11.8189
v  -1.0284 4.8525 -14.8011
v  7.2393 19.1726 -14.8011
v  16.1725 20.3797 11.8189
v  4.1609 1.8567 12.1246
v  15.1844 20.9501 12.1245
v  6.2513 19.7431 -14.4955
v  -2.0164 5.4230 -14.4954
v  5.3068 -0.1962 11.8188
v  0.2631 4.8474 -14.8011
v  11.9554 16.5397 -14.8011
v  20.8965 15.3936 11.8188
v  4.5001 0.6105 12.1246
v  20.0898 16.2003 12.1246
v  11.1487 17.3464 -14.4955
v  -0.5436 5.6541 -14.4955
v  5.0757 -1.6690 11.8189
v  1.5093 4.5081 -14.8011
v  15.8294 12.7758 -14.8011
v  24.1692 9.3546 11.8189
v  4.5052 -0.6810 12.1246
v  23.5987 10.3426 12.1246
v  15.2590 13.7638 -14.4954
v  0.9389 5.4961 -14.4954
v  4.4712 -3.0318 11.8189
v  2.6251 3.8579 -14.8011
v  18.5971 8.1376 -14.8011
v  25.7672 2.6744 11.8189
v  4.1760 -1.9298 12.1246
v  25.4720 3.7764 12.1246
v  18.3019 9.2395 -14.4954
v  2.3299 4.9599 -14.4954
v  3.5348 -4.1917 11.8189
v  3.5348 2.9410 -14.8011
v  20.0702 2.9410 -14.8011
v  25.5819 -4.1918 11.8189
v  3.5348 -3.0509 12.1246
v  25.5819 -3.0509 12.1246
v  20.0702 4.0819 -14.4954
v  3.5348 4.0819 -14.4954
v  2.3299 -5.0698 11.8189
v  4.1759 1.8199 -14.8011
v  20.1479 -2.4598 -14.8013
v  23.6259 -10.7761 11.8188
v  2.6252 -3.9678 12.1246
v  23.9212 -9.6741 12.1245
v  20.4432 -1.3578 -14.4955
v  4.4712 2.9219 -14.4955
v  0.9389 -5.6061 11.8189
v  4.5052 0.5711 -14.8011
v  18.8253 -7.6966 -14.8011
v  20.0324 -16.6297 11.8189
v  1.5093 -4.6180 12.1246
v  20.6028 -15.6417 12.1245
v  19.3957 -6.7086 -14.4955
v  5.0756 1.5591 -14.4954
v  -0.5435 -5.7640 11.8188
v  4.5000 -0.7204 -14.8011
v  16.1924 -12.4127 -14.8011
v  15.0462 -21.3538 11.8188
v  0.2632 -4.9573 12.1246
v  15.8529 -20.5471 12.1246
v  16.9990 -11.6060 -14.4955
v  5.3067 0.0863 -14.4955
v  -2.0163 -5.5329 11.8189
v  4.1608 -1.9665 -14.8011
v  12.4285 -16.2867 -14.8011
v  9.0073 -24.6264 11.8189
v  -1.0283 -4.9625 12.1246
v  9.9953 -24.0560 12.1246
v  13.4165 -15.7162 -14.4954
v  5.1488 -1.3961 -14.4954
v  -3.3792 -4.9285 11.8189
v  3.5106 -3.0824 -14.8011
v  7.7902 -19.0544 -14.8011
v  2.3271 -26.2245 11.8189
v  -2.2772 -4.6332 12.1246
v  3.4291 -25.9292 12.1246
v  8.8922 -18.7591 -14.4954
v  4.6125 -2.7871 -14.4954
v  -4.5391 -3.9920 11.8191
v  2.5937 -3.9919 -14.8009
v  2.5937 -20.5274 -14.8009
v  -4.5391 -26.0392 11.8191
v  -3.3982 -3.9920 12.1248
v  -3.3982 -26.0392 12.1248
v  3.7346 -20.5274 -14.4953
v  3.7346 -3.9919 -14.4953
v  -5.4172 -2.7872 11.8190
v  1.4726 -4.6331 -14.8010
v  -2.8071 -20.6051 -14.8011
v  -11.1234 -24.0832 11.8189
v  -4.3152 -3.0824 12.1248
v  -10.0214 -24.3785 12.1246
v  -1.7051 -20.9004 -14.4954
v  2.5746 -4.9284 -14.4953
v  -5.9534 -1.3961 11.8190
v  0.2238 -4.9624 -14.8010
v  -8.0439 -19.2825 -14.8011
v  -16.9770 -20.4896 11.8189
v  -4.9654 -1.9666 12.1248
v  -15.9890 -21.0600 12.1246
v  -7.0559 -19.8529 -14.4954
v  1.2118 -5.5328 -14.4953
v  -6.1114 0.0863 11.8190
v  -1.0677 -4.9572 -14.8010
v  -12.7600 -16.6496 -14.8011
v  -21.7011 -15.5035 11.8189
v  -5.3047 -0.7204 12.1248
v  -20.8944 -16.3102 12.1246
v  -11.9533 -17.4563 -14.4954
v  -0.2610 -5.7639 -14.4953
v  -5.8803 1.5591 11.8190
v  -2.3139 -4.6180 -14.8010
v  -16.6340 -12.8857 -14.8011
v  -24.9738 -9.4645 11.8189
v  -5.3099 0.5711 12.1248
v  -24.4033 -10.4525 12.1246
v  -16.0635 -13.8737 -14.4954
v  -1.7434 -5.6060 -14.4953
v  -5.2758 2.9219 11.8190
v  -3.4297 -3.9677 -14.8010
v  -19.4017 -8.2474 -14.8011
v  -26.5718 -2.7843 11.8189
v  -4.9806 1.8199 12.1248
v  -26.2766 -3.8863 12.1246
v  -19.1064 -9.3494 -14.4954
v  -3.1344 -5.0697 -14.4953
v  -4.3393 4.0818 11.8189
v  -4.3393 -3.0509 -14.8011
v  -20.8748 -3.0509 -14.8010
v  -26.3866 4.0818 11.8190
v  -4.3393 2.9410 12.1246
v  -26.3866 2.9410 12.1246
v  -20.8748 -4.1918 -14.4955
v  -4.3393 -4.1918 -14.4955
v  -3.1345 4.9599 11.8189
v  -4.9806 -1.9299 -14.8011
v  -20.9526 2.3498 -14.8011
v  -24.4305 10.6661 11.8189
v  -3.4298 3.8579 12.1246
v  -24.7258 9.5642 12.1246
v  -21.2478 1.2479 -14.4954
v  -5.2758 -3.0318 -14.4954
v  -1.7435 5.4961 11.8189
v  -5.3098 -0.6811 -14.8011
v  -19.6299 7.5866 -14.8011
v  -20.8370 16.5198 11.8189
v  -2.3139 4.5081 12.1246
v  -21.4074 15.5317 12.1246
v  -20.2004 6.5986 -14.4954
v  -5.8803 -1.6691 -14.4954
v  -0.2611 5.6541 11.8189
v  -5.3047 0.6105 -14.8011
v  -16.9970 12.3028 -14.8011
v  -15.8508 21.2439 11.8189
v  -1.0678 4.8474 12.1246
v  -16.6575 20.4372 12.1246
v  -17.8037 11.4961 -14.4954
v  -6.1114 -0.1962 -14.4954
v  1.2117 5.4230 11.8189
v  -4.9654 1.8566 -14.8011
v  -13.2331 16.1767 -14.8011
v  -9.8119 24.5165 11.8189
v  0.2237 4.8526 12.1246
v  -10.7999 23.9461 12.1246
v  -14.2211 15.6063 -14.4954
v  -5.9534 1.2862 -14.4954
v  2.5745 4.8186 11.8189
v  -4.3152 2.9725 -14.8011
v  -8.5949 18.9445 -14.8011
v  -3.1317 26.1146 11.8189
v  1.4726 4.5233 12.1246
v  -4.2337 25.8193 12.1246
v  -9.6968 18.6492 -14.4954
v  -5.4172 2.6772 -14.4954
# 192 vertices

vn 0.9666 0.0000 -0.2561
vn -0.9666 0.0000 0.2561
vn 0.0000 -1.0000 -0.0000
vn -0.2598 0.0000 -0.9657
vn -0.0519 0.9806 -0.1892
vn 0.2598 0.0000 0.9657
vn 0.9338 -0.2498 -0.2563
vn 0.9338 -0.2497 -0.2563
vn 0.9337 -0.2498 -0.2563
vn -0.9338 0.2498 0.2563
vn -0.9337 0.2498 0.2563
vn -0.9338 0.2497 0.2563
vn -0.2594 -0.9658 -0.0000
vn -0.2506 0.0672 -0.9658
vn 0.2044 0.9604 -0.1892
vn 0.2506 -0.0672 0.9658
vn 0.2506 -0.0673 0.9657
vn 0.8366 -0.4841 -0.2565
vn 0.8366 -0.4840 -0.2565
vn -0.8366 0.4841 0.2565
vn -0.8366 0.4840 0.2565
vn -0.5005 -0.8657 -0.0000
vn -0.2232 0.1300 -0.9661
vn -0.2232 0.1303 -0.9660
vn 0.4455 0.8750 -0.1892
vn 0.2232 -0.1303 0.9660
vn 0.2232 -0.1302 0.9660
vn 0.6837 -0.6833 -0.2564
vn -0.6837 0.6833 0.2564
vn -0.7080 -0.7063 -0.0000
vn -0.7079 -0.7063 -0.0000
vn -0.1834 0.1838 -0.9657
vn -0.1834 0.1841 -0.9657
vn 0.6561 0.7305 -0.1892
vn 0.1834 -0.1841 0.9657
vn 0.1834 -0.1838 0.9657
vn 0.4822 -0.8377 -0.2564
vn -0.4822 0.8377 0.2564
vn -0.8665 -0.4992 -0.0000
vn -0.1284 0.2252 -0.9658
vn -0.1284 0.2254 -0.9658
vn 0.8240 0.5341 -0.1892
vn 0.8239 0.5342 -0.1892
vn 0.1284 -0.2252 0.9658
vn 0.2503 -0.9336 -0.2564
vn 0.2502 -0.9336 -0.2563
vn -0.2503 0.9336 0.2564
vn -0.2502 0.9336 0.2563
vn -0.9663 -0.2575 -0.0000
vn -0.0672 0.2511 -0.9656
vn 0.9340 0.3029 -0.1892
vn 0.9340 0.3031 -0.1892
vn 0.9340 0.3030 -0.1892
vn 0.0672 -0.2511 0.9656
vn 0.0000 -0.9666 -0.2564
vn 0.0000 -0.9666 -0.2563
vn 0.0000 0.9666 0.2563
vn 0.0000 0.9649 0.2625
vn -1.0000 0.0000 -0.0000
vn 0.0000 0.2599 -0.9656
vn 0.9806 0.0509 -0.1894
vn 0.9818 0.0509 -0.1829
vn 0.9806 0.0511 -0.1894
vn 0.0000 -0.2599 0.9656
vn -0.2502 -0.9336 -0.2563
vn -0.2503 -0.9336 -0.2564
vn 0.2502 0.9336 0.2563
vn 0.2503 0.9336 0.2564
vn -0.9663 0.2575 -0.0000
vn 0.0672 0.2511 -0.9656
vn 0.9605 -0.2040 -0.1891
vn 0.9605 -0.2041 -0.1891
vn -0.0672 -0.2511 0.9656
vn -0.4822 -0.8377 -0.2564
vn 0.4822 0.8377 0.2564
vn -0.8665 0.4992 -0.0000
vn 0.1284 0.2253 -0.9658
vn 0.1284 0.2252 -0.9658
vn 0.8754 -0.4449 -0.1891
vn -0.1284 -0.2254 0.9658
vn -0.1284 -0.2252 0.9658
vn -0.6837 -0.6833 -0.2564
vn 0.6837 0.6833 0.2564
vn -0.7079 0.7063 -0.0000
vn -0.7080 0.7063 -0.0000
vn 0.1834 0.1838 -0.9657
vn 0.1834 0.1836 -0.9658
vn 0.7294 -0.6575 -0.1892
vn 0.7293 -0.6576 -0.1892
vn -0.1834 -0.1841 0.9657
vn -0.1834 -0.1838 0.9657
vn -0.8366 -0.4840 -0.2565
vn -0.8366 -0.4841 -0.2565
vn 0.8366 0.4840 0.2565
vn 0.8366 0.4841 0.2565
vn -0.5005 0.8657 -0.0000
vn 0.2232 0.1302 -0.9660
vn 0.2232 0.1303 -0.9660
vn 0.5341 -0.8240 -0.1892
vn -0.2232 -0.1303 0.9660
vn -0.2232 -0.1300 0.9661
vn -0.9338 -0.2497 -0.2563
vn -0.9338 -0.2498 -0.2563
vn -0.9337 -0.2498 -0.2563
vn -0.9337 -0.2502 -0.2563
vn 0.9338 0.2497 0.2563
vn 0.9337 0.2502 0.2563
vn 0.9337 0.2498 0.2563
vn 0.9338 0.2498 0.2563
vn -0.2594 0.9658 -0.0000
vn 0.2506 0.0673 -0.9657
vn 0.2506 0.0672 -0.9658
vn 0.3021 -0.9343 -0.1892
vn 0.3020 -0.9343 -0.1892
vn -0.2506 -0.0672 0.9658
vn -0.9666 0.0000 -0.2561
vn 0.9666 0.0000 0.2561
vn 0.0000 1.0000 -0.0000
vn 0.2598 0.0000 -0.9657
vn 0.0519 -0.9806 -0.1892
vn -0.2598 0.0000 0.9657
vn -0.9338 0.2498 -0.2563
vn -0.9338 0.2497 -0.2563
vn -0.9337 0.2498 -0.2563
vn 0.9338 -0.2498 0.2563
vn 0.9337 -0.2498 0.2563
vn 0.9338 -0.2497 0.2563
vn 0.2594 0.9658 -0.0000
vn 0.2506 -0.0672 -0.9658
vn -0.2044 -0.9604 -0.1892
vn -0.2506 0.0672 0.9658
vn -0.2506 0.0673 0.9657
vn -0.8366 0.4841 -0.2565
vn -0.8366 0.4840 -0.2565
vn 0.8366 -0.4841 0.2565
vn 0.8366 -0.4840 0.2565
vn 0.5005 0.8657 -0.0000
vn 0.2232 -0.1300 -0.9661
vn 0.2232 -0.1303 -0.9660
vn -0.4455 -0.8750 -0.1892
vn -0.2232 0.1303 0.9660
vn -0.2232 0.1302 0.9660
vn -0.2232 0.1301 0.9661
vn -0.6837 0.6833 -0.2564
vn -0.6833 0.6814 -0.2623
vn 0.6837 -0.6833 0.2564
vn 0.6833 -0.6814 0.2623
vn 0.7080 0.7063 -0.0000
vn 0.7079 0.7063 -0.0000
vn 0.1834 -0.1838 -0.9657
vn 0.1834 -0.1841 -0.9657
vn 0.1834 -0.1830 -0.9659
vn -0.6561 -0.7290 -0.1953
vn -0.6563 -0.7319 -0.1832
vn -0.6561 -0.7305 -0.1892
vn -0.1834 0.1841 0.9657
vn -0.1834 0.1838 0.9657
vn -0.4822 0.8377 -0.2564
vn 0.4822 -0.8377 0.2564
vn 0.8665 0.4992 -0.0000
vn 0.1284 -0.2252 -0.9658
vn 0.1284 -0.2243 -0.9660
vn 0.1284 -0.2254 -0.9658
vn -0.8240 -0.5341 -0.1892
vn -0.8235 -0.5326 -0.1952
vn -0.8239 -0.5342 -0.1892
vn -0.1284 0.2252 0.9658
vn -0.2503 0.9336 -0.2564
vn -0.2502 0.9336 -0.2563
vn 0.2503 -0.9336 0.2564
vn 0.2502 -0.9336 0.2563
vn 0.9663 0.2575 -0.0000
vn 0.0672 -0.2511 -0.9656
vn -0.9349 -0.3040 -0.1833
vn -0.9340 -0.3029 -0.1892
vn -0.9340 -0.3031 -0.1892
vn -0.9340 -0.3030 -0.1892
vn -0.0672 0.2511 0.9656
vn 0.0000 0.9666 -0.2564
vn 0.0000 0.9666 -0.2563
vn 0.0000 -0.9666 0.2563
vn 0.0000 -0.9666 0.2564
vn 1.0000 0.0000 -0.0000
vn 0.0000 -0.2599 -0.9656
vn 0.0000 -0.2586 -0.9660
vn -0.9806 -0.0509 -0.1894
vn -0.9806 -0.0511 -0.1894
vn 0.0000 0.2599 0.9656
vn 0.2502 0.9336 -0.2563
vn 0.2503 0.9336 -0.2564
vn -0.2502 -0.9336 0.2563
vn -0.2503 -0.9336 0.2564
vn 0.9663 -0.2575 -0.0000
vn -0.0672 -0.2511 -0.9656
vn -0.0673 -0.2498 -0.9660
vn -0.9605 0.2040 -0.1891
vn -0.9605 0.2041 -0.1891
vn 0.0672 0.2511 0.9656
vn 0.4822 0.8377 -0.2564
vn -0.4822 -0.8377 0.2564
vn 0.8665 -0.4992 -0.0000
vn -0.1284 -0.2253 -0.9658
vn -0.1284 -0.2241 -0.9661
vn -0.1284 -0.2252 -0.9658
vn -0.8754 0.4449 -0.1891
vn 0.1284 0.2254 0.9658
vn 0.1284 0.2252 0.9658
vn 0.6837 0.6833 -0.2564
vn 0.6834 0.6813 -0.2624
vn -0.6837 -0.6833 0.2564
vn -0.6834 -0.6813 0.2624
vn 0.7079 -0.7063 -0.0000
vn 0.7080 -0.7063 -0.0000
vn -0.1834 -0.1828 -0.9659
vn -0.1834 -0.1838 -0.9657
vn -0.1834 -0.1837 -0.9657
vn -0.7296 0.6588 -0.1832
vn -0.7294 0.6575 -0.1892
vn -0.7293 0.6576 -0.1892
vn 0.1834 0.1841 0.9657
vn 0.1834 0.1838 0.9657
vn 0.8366 0.4840 -0.2565
vn 0.8358 0.4823 -0.2623
vn 0.8359 0.4820 -0.2624
vn -0.8366 -0.4840 0.2565
vn -0.8359 -0.4820 0.2624
vn -0.8358 -0.4823 0.2623
vn 0.5005 -0.8657 -0.0000
vn -0.2232 -0.1294 -0.9661
vn -0.2232 -0.1302 -0.9660
vn -0.2232 -0.1303 -0.9660
vn -0.2232 -0.1296 -0.9661
vn -0.5339 0.8227 -0.1953
vn -0.5342 0.8253 -0.1831
vn -0.5341 0.8240 -0.1892
vn 0.2232 0.1303 0.9660
vn 0.2232 0.1300 0.9661
vn 0.9338 0.2497 -0.2563
vn 0.9319 0.2500 -0.2628
vn 0.9319 0.2502 -0.2628
vn 0.9337 0.2502 -0.2563
vn -0.9338 -0.2497 0.2563
vn -0.9337 -0.2502 0.2563
vn -0.9319 -0.2502 0.2628
vn -0.9319 -0.2500 0.2628
vn 0.2594 -0.9658 -0.0000
vn -0.2506 -0.0669 -0.9658
vn -0.2506 -0.0673 -0.9657
vn -0.2506 -0.0672 -0.9658
vn -0.3021 0.9330 -0.1953
vn -0.3022 0.9355 -0.1831
vn -0.3020 0.9343 -0.1892
vn 0.2506 0.0672 0.9658
# 253 vertex normals

vt 0.1197 0.2360 0.0000
vt 0.0690 0.2360 0.0000
vt 0.0690 0.2056 0.0000
vt 0.1197 0.1955 0.0000
vt 0.8172 0.7457 0.0000
vt 0.7766 0.7457 0.0000
vt 0.7868 0.6949 0.0000
vt 0.8172 0.6949 0.0000
vt 0.6886 0.8673 0.0000
vt 0.6864 0.8673 0.0000
vt 0.6865 0.8165 0.0000
vt 0.6886 0.8165 0.0000
vt 0.6886 0.9900 0.0000
vt 0.6864 0.9900 0.0000
vt 0.6864 0.9596 0.0000
vt 0.6886 0.9596 0.0000
vt 0.6864 0.9078 0.0000
vt 0.6886 0.9078 0.0000
vt 0.1786 0.2360 0.0000
vt 0.1279 0.2360 0.0000
vt 0.1279 0.2056 0.0000
vt 0.1786 0.1955 0.0000
vt 0.8045 0.6338 0.0000
vt 0.7640 0.6338 0.0000
vt 0.7741 0.5831 0.0000
vt 0.8045 0.5831 0.0000
vt 0.6781 0.9900 0.0000
vt 0.6759 0.9900 0.0000
vt 0.6759 0.9393 0.0000
vt 0.6781 0.9393 0.0000
vt 0.6759 0.9088 0.0000
vt 0.6781 0.9088 0.0000
vt 0.6759 0.8571 0.0000
vt 0.6781 0.8571 0.0000
vt 0.6759 0.8165 0.0000
vt 0.6781 0.8165 0.0000
vt 0.0607 0.2381 0.0000
vt 0.0100 0.2381 0.0000
vt 0.0100 0.2077 0.0000
vt 0.0607 0.1976 0.0000
vt 0.5158 0.1997 0.0000
vt 0.5158 0.2403 0.0000
vt 0.4651 0.2301 0.0000
vt 0.4651 0.1997 0.0000
vt 0.0122 0.6286 0.0000
vt 0.0100 0.6286 0.0000
vt 0.0100 0.5779 0.0000
vt 0.0122 0.5779 0.0000
vt 0.0100 0.5474 0.0000
vt 0.0122 0.5474 0.0000
vt 0.0122 0.7209 0.0000
vt 0.0100 0.7209 0.0000
vt 0.0100 0.6691 0.0000
vt 0.0122 0.6691 0.0000
vt 0.7787 0.9900 0.0000
vt 0.7787 0.9393 0.0000
vt 0.8091 0.9393 0.0000
vt 0.8193 0.9900 0.0000
vt 0.7750 0.2123 0.0000
vt 0.7750 0.2529 0.0000
vt 0.7243 0.2428 0.0000
vt 0.7243 0.2123 0.0000
vt 0.6992 0.8673 0.0000
vt 0.6970 0.8673 0.0000
vt 0.6970 0.8165 0.0000
vt 0.6992 0.8165 0.0000
vt 0.6992 0.9900 0.0000
vt 0.6970 0.9900 0.0000
vt 0.6970 0.9596 0.0000
vt 0.6992 0.9596 0.0000
vt 0.6970 0.9078 0.0000
vt 0.6992 0.9078 0.0000
vt 0.7682 0.5179 0.0000
vt 0.7682 0.4672 0.0000
vt 0.7986 0.4672 0.0000
vt 0.8088 0.5179 0.0000
vt 0.5938 0.1934 0.0000
vt 0.5938 0.2339 0.0000
vt 0.5431 0.2238 0.0000
vt 0.5431 0.1934 0.0000
vt 0.6123 0.2987 0.0000
vt 0.6123 0.3009 0.0000
vt 0.5615 0.3009 0.0000
vt 0.5615 0.2987 0.0000
vt 0.7350 0.2987 0.0000
vt 0.7350 0.3009 0.0000
vt 0.7046 0.3009 0.0000
vt 0.7046 0.2987 0.0000
vt 0.6528 0.3009 0.0000
vt 0.6528 0.2987 0.0000
vt 0.6085 0.2181 0.0000
vt 0.6593 0.2181 0.0000
vt 0.6593 0.2485 0.0000
vt 0.6085 0.2587 0.0000
vt 0.7835 0.9141 0.0000
vt 0.7429 0.9141 0.0000
vt 0.7530 0.8634 0.0000
vt 0.7835 0.8634 0.0000
vt 0.0100 0.8514 0.0000
vt 0.0122 0.8514 0.0000
vt 0.0122 0.9021 0.0000
vt 0.0100 0.9021 0.0000
vt 0.0100 0.7287 0.0000
vt 0.0122 0.7287 0.0000
vt 0.0122 0.7591 0.0000
vt 0.0100 0.7591 0.0000
vt 0.0122 0.8108 0.0000
vt 0.0100 0.8108 0.0000
# 108 texture coords

o Turbina
g Turbina
usemtl Material__29
s off
f 1/1/1 2/2/1 3/3/1 
f 3/3/1 4/4/1 1/1/1 
f 5/5/2 6/6/2 7/7/2 
f 7/7/2 8/8/2 5/5/2 
f 1/9/3 5/10/3 8/11/3 
f 8/11/3 2/12/3 1/9/3 
f 2/13/4 8/14/4 7/15/4 
f 7/15/4 3/16/4 2/13/4 
f 3/16/5 7/15/5 6/17/5 
f 6/17/5 4/18/5 3/16/5 
f 4/18/6 6/17/6 5/10/6 
f 5/10/6 1/9/6 4/18/6 
f 9/19/7 10/20/8 11/21/9 
f 11/21/9 12/22/9 9/19/7 
f 13/23/10 14/24/11 15/25/11 
f 15/25/11 16/26/12 13/23/10 
f 9/27/13 13/28/13 16/29/13 
f 16/29/13 10/30/13 9/27/13 
f 10/30/14 16/29/14 15/31/14 
f 15/31/14 11/32/14 10/30/14 
f 11/32/15 15/31/15 14/33/15 
f 14/33/15 12/34/15 11/32/15 
f 12/34/16 14/33/16 13/35/17 
f 13/35/17 9/36/17 12/34/16 
f 17/37/18 18/38/19 19/39/19 
f 19/39/19 20/40/19 17/37/18 
f 21/41/20 22/42/21 23/43/21 
f 23/43/21 24/44/21 21/41/20 
f 17/45/22 21/46/22 24/47/22 
f 24/47/22 18/48/22 17/45/22 
f 18/48/23 24/47/23 23/49/24 
f 23/49/24 19/50/24 18/48/23 
f 19/51/25 23/52/25 22/53/25 
f 22/53/25 20/54/25 19/51/25 
f 20/54/26 22/53/26 21/46/27 
f 21/46/27 17/45/27 20/54/26 
f 25/55/28 26/56/28 27/57/28 
f 27/57/28 28/58/28 25/55/28 
f 29/59/29 30/60/29 31/61/29 
f 31/61/29 32/62/29 29/59/29 
f 25/63/30 29/64/30 32/65/31 
f 32/65/31 26/66/31 25/63/30 
f 26/67/32 32/68/32 31/69/33 
f 31/69/33 27/70/33 26/67/32 
f 27/70/34 31/69/34 30/71/34 
f 30/71/34 28/72/34 27/70/34 
f 28/72/35 30/71/35 29/64/36 
f 29/64/36 25/63/36 28/72/35 
f 33/73/37 34/74/37 35/75/37 
f 35/75/37 36/76/37 33/73/37 
f 37/77/38 38/78/38 39/79/38 
f 39/79/38 40/80/38 37/77/38 
f 33/81/39 37/82/39 40/83/39 
f 40/83/39 34/84/39 33/81/39 
f 34/85/40 40/86/40 39/87/41 
f 39/87/41 35/88/41 34/85/40 
f 35/88/42 39/87/42 38/89/43 
f 38/89/43 36/90/43 35/88/42 
f 36/90/44 38/89/44 37/82/44 
f 37/82/44 33/81/44 36/90/44 
f 41/91/45 42/92/46 43/93/46 
f 43/93/46 44/94/45 41/91/45 
f 45/95/47 46/96/48 47/97/48 
f 47/97/48 48/98/48 45/95/47 
f 41/99/49 45/100/49 48/101/49 
f 48/101/49 42/102/49 41/99/49 
f 42/103/50 48/104/50 47/105/50 
f 47/105/50 43/106/50 42/103/50 
f 43/106/51 47/105/51 46/107/52 
f 46/107/52 44/108/53 43/106/51 
f 44/108/54 46/107/54 45/100/54 
f 45/100/54 41/99/54 44/108/54 
f 49/1/55 50/2/56 51/3/56 
f 51/3/56 52/4/55 49/1/55 
f 53/5/57 54/6/57 55/7/58 
f 55/7/58 56/8/58 53/5/57 
f 49/9/59 53/10/59 56/11/59 
f 56/11/59 50/12/59 49/9/59 
f 50/13/60 56/14/60 55/15/60 
f 55/15/60 51/16/60 50/13/60 
f 51/16/61 55/15/62 54/17/61 
f 54/17/61 52/18/63 51/16/61 
f 52/18/64 54/17/64 53/10/64 
f 53/10/64 49/9/64 52/18/64 
f 57/19/65 58/20/66 59/21/66 
f 59/21/66 60/22/65 57/19/65 
f 61/23/67 62/24/67 63/25/67 
f 63/25/67 64/26/68 61/23/67 
f 57/27/69 61/28/69 64/29/69 
f 64/29/69 58/30/69 57/27/69 
f 58/30/70 64/29/70 63/31/70 
f 63/31/70 59/32/70 58/30/70 
f 59/32/71 63/31/71 62/33/72 
f 62/33/72 60/34/72 59/32/71 
f 60/34/73 62/33/73 61/35/73 
f 61/35/73 57/36/73 60/34/73 
f 65/37/74 66/38/74 67/39/74 
f 67/39/74 68/40/74 65/37/74 
f 69/41/75 70/42/75 71/43/75 
f 71/43/75 72/44/75 69/41/75 
f 65/45/76 69/46/76 72/47/76 
f 72/47/76 66/48/76 65/45/76 
f 66/48/77 72/47/77 71/49/78 
f 71/49/78 67/50/78 66/48/77 
f 67/51/79 71/52/79 70/53/79 
f 70/53/79 68/54/79 67/51/79 
f 68/54/80 70/53/80 69/46/81 
f 69/46/81 65/45/81 68/54/80 
f 73/55/82 74/56/82 75/57/82 
f 75/57/82 76/58/82 73/55/82 
f 77/59/83 78/60/83 79/61/83 
f 79/61/83 80/62/83 77/59/83 
f 73/63/84 77/64/84 80/65/85 
f 80/65/85 74/66/85 73/63/84 
f 74/67/86 80/68/86 79/69/87 
f 79/69/87 75/70/87 74/67/86 
f 75/70/88 79/69/88 78/71/89 
f 78/71/89 76/72/89 75/70/88 
f 76/72/90 78/71/90 77/64/91 
f 77/64/91 73/63/91 76/72/90 
f 81/73/92 82/74/93 83/75/92 
f 83/75/92 84/76/92 81/73/92 
f 85/77/94 86/78/94 87/79/94 
f 87/79/94 88/80/95 85/77/94 
f 81/81/96 85/82/96 88/83/96 
f 88/83/96 82/84/96 81/81/96 
f 82/85/97 88/86/97 87/87/98 
f 87/87/98 83/88/98 82/85/97 
f 83/88/99 87/87/99 86/89/99 
f 86/89/99 84/90/99 83/88/99 
f 84/90/100 86/89/100 85/82/101 
f 85/82/101 81/81/101 84/90/100 
f 89/91/102 90/92/103 91/93/104 
f 91/93/104 92/94/105 89/91/102 
f 93/95/106 94/96/107 95/97/108 
f 95/97/108 96/98/109 93/95/106 
f 89/99/110 93/100/110 96/101/110 
f 96/101/110 90/102/110 89/99/110 
f 90/103/111 96/104/111 95/105/112 
f 95/105/112 91/106/112 90/103/111 
f 91/106/113 95/105/113 94/107/114 
f 94/107/114 92/108/114 91/106/113 
f 92/108/115 94/107/115 93/100/115 
f 93/100/115 89/99/115 92/108/115 
f 97/1/116 98/2/116 99/3/116 
f 99/3/116 100/4/116 97/1/116 
f 101/5/117 102/6/117 103/7/117 
f 103/7/117 104/8/117 101/5/117 
f 97/9/118 101/10/118 104/11/118 
f 104/11/118 98/12/118 97/9/118 
f 98/13/119 104/14/119 103/15/119 
f 103/15/119 99/16/119 98/13/119 
f 99/16/120 103/15/120 102/17/120 
f 102/17/120 100/18/120 99/16/120 
f 100/18/121 102/17/121 101/10/121 
f 101/10/121 97/9/121 100/18/121 
f 105/19/122 106/20/123 107/21/124 
f 107/21/124 108/22/124 105/19/122 
f 109/23/125 110/24/126 111/25/126 
f 111/25/126 112/26/127 109/23/125 
f 105/27/128 109/28/128 112/29/128 
f 112/29/128 106/30/128 105/27/128 
f 106/30/129 112/29/129 111/31/129 
f 111/31/129 107/32/129 106/30/129 
f 107/32/130 111/31/130 110/33/130 
f 110/33/130 108/34/130 107/32/130 
f 108/34/131 110/33/131 109/35/132 
f 109/35/132 105/36/132 108/34/131 
f 113/37/133 114/38/134 115/39/134 
f 115/39/134 116/40/134 113/37/133 
f 117/41/135 118/42/136 119/43/136 
f 119/43/136 120/44/136 117/41/135 
f 113/45/137 117/46/137 120/47/137 
f 120/47/137 114/48/137 113/45/137 
f 114/48/138 120/47/138 119/49/139 
f 119/49/139 115/50/139 114/48/138 
f 115/51/140 119/52/140 118/53/140 
f 118/53/140 116/54/140 115/51/140 
f 116/54/141 118/53/141 117/46/142 
f 117/46/142 113/45/143 116/54/141 
f 121/55/144 122/56/144 123/57/145 
f 123/57/145 124/58/144 121/55/144 
f 125/59/146 126/60/146 127/61/147 
f 127/61/147 128/62/146 125/59/146 
f 121/63/148 125/64/148 128/65/149 
f 128/65/149 122/66/149 121/63/148 
f 122/67/150 128/68/150 127/69/151 
f 127/69/151 123/70/152 122/67/150 
f 123/70/153 127/69/154 126/71/155 
f 126/71/155 124/72/155 123/70/153 
f 124/72/156 126/71/156 125/64/157 
f 125/64/157 121/63/157 124/72/156 
f 129/73/158 130/74/158 131/75/158 
f 131/75/158 132/76/158 129/73/158 
f 133/77/159 134/78/159 135/79/159 
f 135/79/159 136/80/159 133/77/159 
f 129/81/160 133/82/160 136/83/160 
f 136/83/160 130/84/160 129/81/160 
f 130/85/161 136/86/161 135/87/162 
f 135/87/162 131/88/163 130/85/161 
f 131/88/164 135/87/165 134/89/166 
f 134/89/166 132/90/166 131/88/164 
f 132/90/167 134/89/167 133/82/167 
f 133/82/167 129/81/167 132/90/167 
f 137/91/168 138/92/169 139/93/169 
f 139/93/169 140/94/168 137/91/168 
f 141/95/170 142/96/171 143/97/171 
f 143/97/171 144/98/171 141/95/170 
f 137/99/172 141/100/172 144/101/172 
f 144/101/172 138/102/172 137/99/172 
f 138/103/173 144/104/173 143/105/173 
f 143/105/173 139/106/173 138/103/173 
f 139/106/174 143/105/175 142/107/176 
f 142/107/176 140/108/177 139/106/174 
f 140/108/178 142/107/178 141/100/178 
f 141/100/178 137/99/178 140/108/178 
f 145/1/179 146/2/180 147/3/180 
f 147/3/180 148/4/179 145/1/179 
f 149/5/181 150/6/181 151/7/182 
f 151/7/182 152/8/182 149/5/181 
f 145/9/183 149/10/183 152/11/183 
f 152/11/183 146/12/183 145/9/183 
f 146/13/184 152/14/185 151/15/184 
f 151/15/184 147/16/184 146/13/184 
f 147/16/186 151/15/187 150/17/186 
f 150/17/186 148/18/187 147/16/186 
f 148/18/188 150/17/188 149/10/188 
f 149/10/188 145/9/188 148/18/188 
f 153/19/189 154/20/190 155/21/190 
f 155/21/190 156/22/189 153/19/189 
f 157/23/191 158/24/191 159/25/191 
f 159/25/191 160/26/192 157/23/191 
f 153/27/193 157/28/193 160/29/193 
f 160/29/193 154/30/193 153/27/193 
f 154/30/194 160/29/195 159/31/194 
f 159/31/194 155/32/194 154/30/194 
f 155/32/196 159/31/196 158/33/197 
f 158/33/197 156/34/197 155/32/196 
f 156/34/198 158/33/198 157/35/198 
f 157/35/198 153/36/198 156/34/198 
f 161/37/199 162/38/199 163/39/199 
f 163/39/199 164/40/199 161/37/199 
f 165/41/200 166/42/200 167/43/200 
f 167/43/200 168/44/200 165/41/200 
f 161/45/201 165/46/201 168/47/201 
f 168/47/201 162/48/201 161/45/201 
f 162/48/202 168/47/203 167/49/204 
f 167/49/204 163/50/204 162/48/202 
f 163/51/205 167/52/205 166/53/205 
f 166/53/205 164/54/205 163/51/205 
f 164/54/206 166/53/206 165/46/207 
f 165/46/207 161/45/207 164/54/206 
f 169/55/208 170/56/209 171/57/208 
f 171/57/208 172/58/208 169/55/208 
f 173/59/210 174/60/210 175/61/210 
f 175/61/210 176/62/211 173/59/210 
f 169/63/212 173/64/212 176/65/213 
f 176/65/213 170/66/213 169/63/212 
f 170/67/214 176/68/215 175/69/216 
f 175/69/216 171/70/216 170/67/214 
f 171/70/217 175/69/218 174/71/219 
f 174/71/219 172/72/219 171/70/217 
f 172/72/220 174/71/220 173/64/221 
f 173/64/221 169/63/221 172/72/220 
f 177/73/222 178/74/223 179/75/224 
f 179/75/224 180/76/222 177/73/222 
f 181/77/225 182/78/225 183/79/226 
f 183/79/226 184/80/227 181/77/225 
f 177/81/228 181/82/228 184/83/228 
f 184/83/228 178/84/228 177/81/228 
f 178/85/229 184/86/230 183/87/231 
f 183/87/231 179/88/232 178/85/229 
f 179/88/233 183/87/234 182/89/235 
f 182/89/235 180/90/235 179/88/233 
f 180/90/236 182/89/236 181/82/237 
f 181/82/237 177/81/237 180/90/236 
f 185/91/238 186/92/239 187/93/240 
f 187/93/240 188/94/241 185/91/238 
f 189/95/242 190/96/243 191/97/244 
f 191/97/244 192/98/245 189/95/242 
f 185/99/246 189/100/246 192/101/246 
f 192/101/246 186/102/246 185/99/246 
f 186/103/247 192/104/248 191/105/249 
f 191/105/249 187/106/247 186/103/247 
f 187/106/250 191/105/251 190/107/252 
f 190/107/252 188/108/252 187/106/250 
f 188/108/253 190/107/253 189/100/253 
f 189/100/253 185/99/253 188/108/253 
# 288 faces

