# 3ds Max Wavefront OBJ Exporter v0.97b - (c)2007 guruware
# File Created: 15.07.2021 12:43:19

mtllib Pata chica 2.mtl

#
# object _D2_R2_Middle_Foot
#

v  -0.5232 1.2689 -0.0242
v  -0.4697 1.2689 0.0294
v  -0.4697 1.2689 2.3862
v  -0.5232 1.2689 2.4398
v  0.1124 1.4053 2.4703
v  0.1124 2.0635 2.0892
v  0.0988 2.0517 2.0960
v  0.0988 1.4171 2.4634
v  -0.1266 2.6325 1.7597
v  -0.3158 2.6325 1.7597
v  -0.1266 2.0635 2.0892
v  -0.1266 1.4053 -0.0547
v  -0.5538 1.4053 -0.0547
v  -0.3158 2.6325 0.6559
v  -0.1266 2.0635 0.3264
v  -0.1266 1.4053 2.4703
v  -0.1130 1.4171 2.4634
v  -0.1130 2.0517 2.0960
v  0.2541 1.1570 2.1848
v  0.2541 1.1570 0.2308
v  0.4555 1.1570 0.0294
v  0.4555 1.1570 2.3862
v  -0.5538 1.4053 2.4703
v  -0.1266 2.6325 0.6559
v  0.0988 1.4171 -0.0479
v  0.0988 2.0517 0.3195
v  0.1124 2.0635 0.3264
v  0.1124 1.4053 -0.0547
v  -0.1129 2.0517 0.3195
v  -0.1129 1.4171 -0.0479
v  0.5230 2.0835 0.5381
v  0.5230 2.1456 0.8623
v  0.5230 1.5692 0.8623
v  0.5230 1.9677 0.4625
v  -0.5371 1.9677 0.4625
v  -0.5371 1.5692 0.8623
v  -0.5371 2.1456 0.8623
v  -0.5371 2.0835 0.5381
v  0.5230 1.9677 1.9351
v  0.5230 1.5692 1.5352
v  0.5230 2.1455 1.5352
v  0.5230 2.0835 1.8595
v  -0.5371 2.0835 1.8595
v  -0.5371 2.1455 1.5352
v  -0.5371 1.5692 1.5352
v  -0.5371 1.9677 1.9351
v  -0.1129 2.0193 0.2438
v  -0.1129 1.5463 -0.0300
v  0.1124 2.6325 0.6559
v  0.1124 2.6325 1.7597
v  -0.1130 1.5463 2.4456
v  -0.1130 2.0193 2.1717
v  -0.5488 1.5766 1.5278
v  -0.5488 2.1382 1.5278
v  0.5346 1.5766 0.8697
v  0.5346 2.1382 0.8697
v  0.5346 2.1382 1.5278
v  0.5346 1.5766 1.5278
v  -0.5488 2.1382 0.8697
v  -0.5488 1.5766 0.8697
v  -0.5488 2.2979 1.5278
v  -0.5371 2.3053 1.5352
v  -0.5371 2.3053 0.8623
v  -0.5488 2.2979 0.8697
v  0.5346 2.2979 0.8697
v  0.5230 2.3053 0.8623
v  0.5230 2.3053 1.5352
v  0.5346 2.2979 1.5278
v  0.5230 2.2096 1.5352
v  0.5346 2.2169 1.5278
v  -0.5488 2.2169 1.5278
v  -0.5371 2.2096 1.5352
v  -0.4697 1.1570 2.3862
v  -0.4697 1.1570 0.0294
v  -0.2683 1.1570 0.2308
v  -0.2683 1.1570 2.1848
v  -0.5371 2.2096 0.8623
v  -0.5488 2.2169 0.8697
v  0.5346 2.2169 0.8697
v  0.5230 2.2096 0.8623
v  0.5396 1.4053 2.4703
v  0.5091 1.2689 2.4398
v  0.5091 1.2689 -0.0242
v  0.5396 1.4053 -0.0547
v  0.0988 1.5463 -0.0300
v  0.0988 2.0193 2.1717
v  0.3017 2.6325 1.7597
v  0.3017 2.6325 0.6559
v  0.0988 2.0193 0.2438
v  0.0988 1.5463 2.4456
v  0.4555 1.2689 0.0294
v  0.4555 1.2689 2.3862
v  0.2541 1.2552 2.1848
v  -0.2683 1.2552 2.1848
v  -0.2683 1.2552 0.2308
v  0.2541 1.2552 0.2308
v  0.5230 1.7070 0.3730
v  0.5230 1.5692 0.3616
v  0.1899 1.5692 0.3616
v  0.1899 1.7070 0.3730
v  0.5230 1.8411 0.4069
v  0.1899 1.8411 0.4069
v  0.1899 1.9677 0.4625
v  0.5230 1.5692 2.0360
v  0.5230 1.7070 2.0246
v  0.1899 1.7070 2.0246
v  0.1899 1.5692 2.0360
v  0.1899 2.0835 0.5381
v  0.5230 1.8411 1.9907
v  0.1899 1.8411 1.9907
v  0.5230 2.1852 0.6318
v  0.1899 2.1852 0.6318
v  0.1899 1.9677 1.9351
v  0.5230 2.2701 0.7409
v  0.1899 2.2701 0.7409
v  0.1899 2.0835 1.8595
v  0.5230 2.3359 0.8623
v  0.1899 2.3359 0.8623
v  0.5230 2.1852 1.7658
v  0.1899 2.1852 1.7658
v  0.5230 2.3808 0.9933
v  0.1899 2.3808 0.9933
v  0.5230 2.2701 1.6567
v  0.1899 2.2701 1.6567
v  0.5230 2.4036 1.1297
v  0.1899 2.4036 1.1297
v  0.5230 2.3359 1.5352
v  0.1899 2.3359 1.5352
v  0.5230 2.4036 1.2679
v  0.1899 2.4036 1.2679
v  0.5230 2.3808 1.4043
v  0.1899 2.3808 1.4043
v  -0.2041 1.7070 2.0246
v  -0.5371 1.7070 2.0246
v  -0.5371 1.5692 2.0360
v  -0.2041 1.5692 2.0360
v  -0.2041 1.8411 1.9907
v  -0.5371 1.8411 1.9907
v  -0.2041 1.9677 1.9351
v  -0.2041 1.7070 0.3730
v  -0.2041 1.5692 0.3616
v  -0.5371 1.5692 0.3616
v  -0.5371 1.7070 0.3730
v  -0.2041 2.0835 1.8595
v  -0.2041 1.8411 0.4069
v  -0.5371 1.8411 0.4069
v  -0.2041 2.1852 1.7658
v  -0.5371 2.1852 1.7658
v  -0.2041 1.9677 0.4625
v  -0.2041 2.2701 1.6567
v  -0.5371 2.2701 1.6567
v  -0.2041 2.0835 0.5381
v  -0.2041 2.3359 1.5352
v  -0.5371 2.3359 1.5352
v  -0.2041 2.1852 0.6318
v  -0.5371 2.1852 0.6318
v  -0.2041 2.3808 1.4043
v  -0.5371 2.3808 1.4043
v  -0.2041 2.2701 0.7409
v  -0.5371 2.2701 0.7409
v  -0.2041 2.4036 1.2679
v  -0.5371 2.4036 1.2679
v  -0.2041 2.3359 0.8623
v  -0.5371 2.3359 0.8623
v  -0.2041 2.4036 1.1297
v  -0.5371 2.4036 1.1297
v  -0.2041 2.3808 0.9933
v  -0.5371 2.3808 0.9933
v  -0.2041 1.5692 0.8623
v  -0.2041 1.5692 1.5352
v  0.1899 1.5692 1.5352
v  0.1899 1.5692 0.8623
# 172 vertices

vn 0.0000 -1.0000 -0.0000
vn -0.0000 0.2067 0.9784
vn -0.0000 0.6555 0.7552
vn -0.0000 0.6298 0.7767
vn -0.0000 0.4160 0.9094
vn 0.0000 0.8663 0.4995
vn 0.0000 0.6941 0.7199
vn 0.0000 0.6296 0.7769
vn -0.0000 0.2782 -0.9605
vn 0.0000 0.1518 -0.9884
vn 0.0000 0.6941 -0.7199
vn -0.0000 0.6296 -0.7769
vn 0.0000 0.3130 0.9497
vn 0.0000 0.3862 0.9224
vn 0.0000 0.6710 0.7414
vn 0.0000 0.1518 0.9884
vn 0.0000 0.8663 -0.4995
vn 0.0001 0.3860 -0.9225
vn 0.0001 0.6298 -0.7767
vn 0.0000 0.6555 -0.7552
vn 0.0000 0.2471 -0.9690
vn -0.0001 0.6710 -0.7414
vn -0.0001 0.4158 -0.9095
vn 1.0000 0.0000 -0.0000
vn 0.9732 0.1625 -0.1626
vn 0.9830 0.0000 -0.1835
vn -1.0000 0.0000 -0.0000
vn -0.9830 0.0000 -0.1835
vn -0.9732 0.1625 -0.1626
vn 0.9830 -0.0000 0.1835
vn 0.9732 0.1625 0.1626
vn -0.9732 0.1625 0.1626
vn -0.9830 -0.0000 0.1835
vn -0.8654 -0.3543 0.3544
vn -0.8654 0.3543 0.3544
vn 0.8654 -0.3543 -0.3544
vn 0.8654 0.3543 -0.3544
vn 0.8654 0.3543 0.3544
vn 0.8654 -0.3543 0.3544
vn -0.8654 0.3543 -0.3544
vn -0.8654 -0.3543 -0.3544
vn 0.0000 -0.2183 -0.9759
vn -0.8653 0.3544 0.3544
vn -0.9860 0.1181 0.1181
vn -0.9811 0.1369 -0.1369
vn -0.8653 0.3544 -0.3544
vn 0.8653 0.3544 -0.3544
vn 0.9811 0.1369 -0.1369
vn 0.9860 0.1181 0.1181
vn 0.8653 0.3544 0.3544
vn 0.9593 -0.1997 0.1997
vn 0.8653 -0.3544 0.3544
vn -0.8653 -0.3544 0.3544
vn -0.9593 -0.1997 0.1997
vn -0.9593 -0.1997 -0.1997
vn -0.8653 -0.3544 -0.3544
vn 0.8653 -0.3544 -0.3544
vn 0.9593 -0.1997 -0.1997
vn 0.9999 -0.0143 -0.0000
vn 0.9759 -0.2184 -0.0000
vn -0.9999 -0.0143 -0.0000
vn -0.9759 -0.2184 -0.0000
vn 0.0000 -0.2184 0.9759
vn 0.0000 0.3250 -0.9457
vn 0.0000 0.7486 0.6631
vn -0.0000 0.6941 0.7199
vn -0.0000 0.6941 -0.7199
vn 0.0000 0.7486 -0.6631
vn 0.9817 0.1903 0.0000
vn -0.9817 0.1903 0.0000
vn 0.0000 0.3250 0.9457
vn 0.0000 -0.0000 1.0000
vn 0.0000 -0.0000 -1.0000
vn 0.0000 0.0000 -1.0000
vn 0.0000 0.1646 -0.9864
vn 0.0000 0.0826 -0.9966
vn 0.0000 0.3247 -0.9458
vn 0.0000 0.4759 -0.8795
vn 0.0000 0.0826 0.9966
vn 0.0000 0.1646 0.9864
vn 0.0000 0.6142 -0.7891
vn 0.0000 0.3247 0.9458
vn 0.0000 0.7357 -0.6773
vn 0.0000 0.4759 0.8795
vn 0.0000 0.8370 -0.5472
vn 0.0000 0.6142 0.7891
vn 0.0000 0.9157 -0.4018
vn 0.0000 0.7357 0.6773
vn 0.0000 0.9695 -0.2453
vn 0.0000 0.8371 0.5470
vn 0.0000 0.9966 -0.0826
vn 0.0000 0.9158 0.4017
vn 0.0000 0.9966 0.0826
vn 0.0000 0.9694 0.2454
vn -0.1842 -0.9829 -0.0000
vn 0.1842 -0.9829 -0.0000
# 96 vertex normals

vt 0.8275 0.1642 0.0000
vt 0.8285 0.1629 0.0000
vt 0.8851 0.1626 0.0000
vt 0.8861 0.1639 0.0000
vt 0.9829 0.1997 0.0000
vt 0.9829 0.1834 0.0000
vt 0.9832 0.1837 0.0000
vt 0.9832 0.1994 0.0000
vt 0.9880 0.1693 0.0000
vt 0.9921 0.1693 0.0000
vt 0.9880 0.1834 0.0000
vt 0.8784 0.2697 0.0000
vt 0.8876 0.2697 0.0000
vt 0.8825 0.3001 0.0000
vt 0.8784 0.2860 0.0000
vt 0.9880 0.1997 0.0000
vt 0.9877 0.1994 0.0000
vt 0.9877 0.1837 0.0000
vt 0.9221 0.1762 0.0000
vt 0.8803 0.1760 0.0000
vt 0.8760 0.1717 0.0000
vt 0.9265 0.1719 0.0000
vt 0.9972 0.1997 0.0000
vt 0.8784 0.3001 0.0000
vt 0.8736 0.2700 0.0000
vt 0.8736 0.2857 0.0000
vt 0.8733 0.2860 0.0000
vt 0.8733 0.2697 0.0000
vt 0.8781 0.2857 0.0000
vt 0.8781 0.2700 0.0000
vt 0.9349 0.2638 0.0000
vt 0.9278 0.2651 0.0000
vt 0.9279 0.2527 0.0000
vt 0.9365 0.2613 0.0000
vt 0.9365 0.2831 0.0000
vt 0.9279 0.2918 0.0000
vt 0.9278 0.2793 0.0000
vt 0.9349 0.2806 0.0000
vt 0.9047 0.2613 0.0000
vt 0.9133 0.2527 0.0000
vt 0.9133 0.2651 0.0000
vt 0.9063 0.2638 0.0000
vt 0.9063 0.2806 0.0000
vt 0.9133 0.2793 0.0000
vt 0.9133 0.2918 0.0000
vt 0.9047 0.2831 0.0000
vt 0.9815 0.2346 0.0000
vt 0.9972 0.2343 0.0000
vt 0.9958 0.2354 0.0000
vt 0.9841 0.2356 0.0000
vt 0.8306 0.2680 0.0000
vt 0.8235 0.2559 0.0000
vt 0.8612 0.2557 0.0000
vt 0.8542 0.2679 0.0000
vt 0.8541 0.2384 0.0000
vt 0.8612 0.2506 0.0000
vt 0.8234 0.2507 0.0000
vt 0.8304 0.2385 0.0000
vt 0.9420 0.2628 0.0000
vt 0.9577 0.2629 0.0000
vt 0.9551 0.2639 0.0000
vt 0.9434 0.2638 0.0000
vt 0.9135 0.2915 0.0000
vt 0.9136 0.2795 0.0000
vt 0.9276 0.2529 0.0000
vt 0.9276 0.2649 0.0000
vt 0.9136 0.2649 0.0000
vt 0.9135 0.2529 0.0000
vt 0.9276 0.2795 0.0000
vt 0.9276 0.2915 0.0000
vt 0.8258 0.1664 0.0000
vt 0.8236 0.1553 0.0000
vt 0.9136 0.2760 0.0000
vt 0.9133 0.2758 0.0000
vt 0.9278 0.2758 0.0000
vt 0.9276 0.2760 0.0000
vt 0.9276 0.2684 0.0000
vt 0.9278 0.2686 0.0000
vt 0.9133 0.2686 0.0000
vt 0.9136 0.2684 0.0000
vt 0.9133 0.2665 0.0000
vt 0.9136 0.2667 0.0000
vt 0.9136 0.2777 0.0000
vt 0.9133 0.2779 0.0000
vt 0.9264 0.1917 0.0000
vt 0.8759 0.1915 0.0000
vt 0.8802 0.1872 0.0000
vt 0.9221 0.1874 0.0000
vt 0.9278 0.2779 0.0000
vt 0.9276 0.2777 0.0000
vt 0.9276 0.2667 0.0000
vt 0.9278 0.2665 0.0000
vt 0.8872 0.1373 0.0000
vt 0.8854 0.1394 0.0000
vt 0.8269 0.1397 0.0000
vt 0.8251 0.1377 0.0000
vt 0.8879 0.1660 0.0000
vt 0.8234 0.1489 0.0000
vt 0.8895 0.1548 0.0000
vt 0.9842 0.2401 0.0000
vt 0.9814 0.2402 0.0000
vt 0.9813 0.2356 0.0000
vt 0.9434 0.2684 0.0000
vt 0.9416 0.2684 0.0000
vt 0.9417 0.2638 0.0000
vt 0.9829 0.1693 0.0000
vt 0.9788 0.1693 0.0000
vt 0.8692 0.3001 0.0000
vt 0.8641 0.2697 0.0000
vt 0.9959 0.2400 0.0000
vt 0.9976 0.2354 0.0000
vt 0.9977 0.2399 0.0000
vt 0.8387 0.2314 0.0000
vt 0.8234 0.2047 0.0000
vt 0.8775 0.2047 0.0000
vt 0.8623 0.2314 0.0000
vt 0.9737 0.1997 0.0000
vt 0.8733 0.3001 0.0000
vt 0.8542 0.2719 0.0000
vt 0.8306 0.2721 0.0000
vt 0.9077 0.1641 0.0000
vt 0.8924 0.1373 0.0000
vt 0.9465 0.1373 0.0000
vt 0.9313 0.1641 0.0000
vt 0.8304 0.2345 0.0000
vt 0.8541 0.2343 0.0000
vt 0.9579 0.2685 0.0000
vt 0.9551 0.2685 0.0000
vt 0.9579 0.2639 0.0000
vt 0.8760 0.1693 0.0000
vt 0.9265 0.1695 0.0000
vt 0.9816 0.2412 0.0000
vt 0.9973 0.2410 0.0000
vt 0.9289 0.1719 0.0000
vt 0.9288 0.1917 0.0000
vt 0.8735 0.1915 0.0000
vt 0.8736 0.1717 0.0000
vt 0.9420 0.2694 0.0000
vt 0.9577 0.2695 0.0000
vt 0.8759 0.1939 0.0000
vt 0.9264 0.1941 0.0000
vt 0.9046 0.2476 0.0000
vt 0.9025 0.2476 0.0000
vt 0.9025 0.2364 0.0000
vt 0.9046 0.2364 0.0000
vt 0.8845 0.1407 0.0000
vt 0.8278 0.1410 0.0000
vt 0.8282 0.1408 0.0000
vt 0.8288 0.1631 0.0000
vt 0.9046 0.2343 0.0000
vt 0.9464 0.2343 0.0000
vt 0.9464 0.2364 0.0000
vt 0.9464 0.2476 0.0000
vt 0.9464 0.2497 0.0000
vt 0.9046 0.2497 0.0000
vt 0.9485 0.2364 0.0000
vt 0.9485 0.2476 0.0000
vt 0.9929 0.2206 0.0000
vt 0.9959 0.2206 0.0000
vt 0.9959 0.2277 0.0000
vt 0.9929 0.2277 0.0000
vt 0.9900 0.2206 0.0000
vt 0.9900 0.2277 0.0000
vt 0.9870 0.2206 0.0000
vt 0.9870 0.2277 0.0000
vt 0.9396 0.2206 0.0000
vt 0.9426 0.2206 0.0000
vt 0.9426 0.2277 0.0000
vt 0.9396 0.2277 0.0000
vt 0.8893 0.1484 0.0000
vt 0.9840 0.2206 0.0000
vt 0.9840 0.2277 0.0000
vt 0.9455 0.2206 0.0000
vt 0.9455 0.2277 0.0000
vt 0.9811 0.2206 0.0000
vt 0.9811 0.2277 0.0000
vt 0.9485 0.2206 0.0000
vt 0.9485 0.2277 0.0000
vt 0.9781 0.2206 0.0000
vt 0.9781 0.2277 0.0000
vt 0.9515 0.2206 0.0000
vt 0.9515 0.2277 0.0000
vt 0.9752 0.2206 0.0000
vt 0.9752 0.2277 0.0000
vt 0.9544 0.2206 0.0000
vt 0.9544 0.2277 0.0000
vt 0.8848 0.1628 0.0000
vt 0.8842 0.1406 0.0000
vt 0.9722 0.2206 0.0000
vt 0.9722 0.2277 0.0000
vt 0.9574 0.2206 0.0000
vt 0.9574 0.2277 0.0000
vt 0.9692 0.2206 0.0000
vt 0.9692 0.2277 0.0000
vt 0.9604 0.2206 0.0000
vt 0.9604 0.2277 0.0000
vt 0.9663 0.2206 0.0000
vt 0.9663 0.2277 0.0000
vt 0.9633 0.2206 0.0000
vt 0.9633 0.2277 0.0000
vt 0.8834 0.2206 0.0000
vt 0.8834 0.2277 0.0000
vt 0.8804 0.2277 0.0000
vt 0.8804 0.2206 0.0000
vt 0.8864 0.2206 0.0000
vt 0.8864 0.2277 0.0000
vt 0.8893 0.2206 0.0000
vt 0.8893 0.2277 0.0000
vt 0.9337 0.2206 0.0000
vt 0.9367 0.2206 0.0000
vt 0.9367 0.2277 0.0000
vt 0.9337 0.2277 0.0000
vt 0.8923 0.2206 0.0000
vt 0.8923 0.2277 0.0000
vt 0.9308 0.2206 0.0000
vt 0.9308 0.2277 0.0000
vt 0.8952 0.2206 0.0000
vt 0.8952 0.2277 0.0000
vt 0.9278 0.2206 0.0000
vt 0.9278 0.2277 0.0000
vt 0.8982 0.2206 0.0000
vt 0.8982 0.2277 0.0000
vt 0.9249 0.2206 0.0000
vt 0.9249 0.2277 0.0000
vt 0.9012 0.2206 0.0000
vt 0.9012 0.2277 0.0000
vt 0.9219 0.2206 0.0000
vt 0.9219 0.2277 0.0000
vt 0.9041 0.2206 0.0000
vt 0.9041 0.2277 0.0000
vt 0.9189 0.2206 0.0000
vt 0.9189 0.2277 0.0000
vt 0.9071 0.2206 0.0000
vt 0.9071 0.2277 0.0000
vt 0.9160 0.2206 0.0000
vt 0.9160 0.2277 0.0000
vt 0.9101 0.2206 0.0000
vt 0.9101 0.2277 0.0000
vt 0.9130 0.2206 0.0000
vt 0.9130 0.2277 0.0000
vt 0.9677 0.2015 0.0000
vt 0.9569 0.2016 0.0000
vt 0.9569 0.1944 0.0000
vt 0.9676 0.1944 0.0000
vt 0.9318 0.1945 0.0000
vt 0.9425 0.1945 0.0000
vt 0.9425 0.2016 0.0000
vt 0.9318 0.2017 0.0000
vt 0.9416 0.2527 0.0000
vt 0.9524 0.2527 0.0000
vt 0.9524 0.2598 0.0000
vt 0.9416 0.2599 0.0000
vt 0.9775 0.2598 0.0000
vt 0.9668 0.2598 0.0000
vt 0.9668 0.2527 0.0000
vt 0.9775 0.2527 0.0000
vt 0.9083 0.2660 0.0000
vt 0.9107 0.2679 0.0000
vt 0.9305 0.2679 0.0000
vt 0.9329 0.2660 0.0000
vt 0.9329 0.2784 0.0000
vt 0.9305 0.2766 0.0000
vt 0.9107 0.2766 0.0000
vt 0.9083 0.2784 0.0000
vt 0.9025 0.2918 0.0000
vt 0.9027 0.2888 0.0000
vt 0.9278 0.2751 0.0000
vt 0.9133 0.2751 0.0000
vt 0.9162 0.2742 0.0000
vt 0.9027 0.2556 0.0000
vt 0.9034 0.2585 0.0000
vt 0.9385 0.2556 0.0000
vt 0.9387 0.2527 0.0000
vt 0.9377 0.2585 0.0000
vt 0.9133 0.2693 0.0000
vt 0.9221 0.2708 0.0000
vt 0.9250 0.2703 0.0000
vt 0.9191 0.2708 0.0000
vt 0.9162 0.2703 0.0000
vt 0.9278 0.2693 0.0000
vt 0.9025 0.2527 0.0000
vt 0.9034 0.2859 0.0000
vt 0.9385 0.2888 0.0000
vt 0.9387 0.2918 0.0000
vt 0.9377 0.2859 0.0000
vt 0.9250 0.2742 0.0000
vt 0.9191 0.2737 0.0000
vt 0.9221 0.2737 0.0000
# 288 texture coords

o _D2_R2_Middle_Foot
g _D2_R2_Middle_Foot
usemtl Middle_FootMat
s off
f 1/1/1 2/2/1 3/3/1 
f 3/3/1 4/4/1 1/1/1 
f 5/5/2 6/6/3 7/7/4 
f 7/7/4 8/8/5 5/5/2 
f 9/9/6 10/10/7 11/11/8 
f 12/12/9 13/13/10 14/14/11 
f 14/14/11 15/15/12 12/12/9 
f 16/16/13 17/17/14 18/18/15 
f 18/18/15 11/11/8 16/16/13 
f 19/19/1 20/20/1 21/21/1 
f 21/21/1 22/22/1 19/19/1 
f 16/16/13 11/11/8 10/10/7 
f 10/10/7 23/23/16 16/16/13 
f 24/24/17 15/15/12 14/14/11 
f 25/25/18 26/26/19 27/27/20 
f 27/27/20 28/28/21 25/25/18 
f 15/15/12 29/29/22 30/30/23 
f 30/30/23 12/12/9 15/15/12 
f 31/31/24 32/32/25 33/33/26 
f 33/33/26 34/34/24 31/31/24 
f 35/35/27 36/36/28 37/37/29 
f 37/37/29 38/38/27 35/35/27 
f 16/16/13 5/5/2 8/8/5 
f 8/8/5 17/17/14 16/16/13 
f 39/39/24 40/40/30 41/41/31 
f 41/41/31 42/42/24 39/39/24 
f 43/43/27 44/44/32 45/45/33 
f 45/45/33 46/46/27 43/43/27 
f 30/47/27 29/48/27 47/49/27 
f 47/49/27 48/50/27 30/47/27 
f 49/51/27 27/52/27 6/53/27 
f 6/53/27 50/54/27 49/51/27 
f 9/55/24 11/56/24 15/57/24 
f 15/57/24 24/58/24 9/55/24 
f 18/59/27 17/60/27 51/61/27 
f 51/61/27 52/62/27 18/59/27 
f 53/63/34 45/45/33 44/44/32 
f 44/44/32 54/64/35 53/63/34 
f 55/65/36 33/33/26 32/32/25 
f 32/32/25 56/66/37 55/65/36 
f 57/67/38 41/41/31 40/40/30 
f 40/40/30 58/68/39 57/67/38 
f 59/69/40 37/37/29 36/36/28 
f 36/36/28 60/70/41 59/69/40 
f 13/71/10 12/72/9 1/1/42 
f 61/73/43 62/74/44 63/75/45 
f 63/75/45 64/76/46 61/73/43 
f 65/77/47 66/78/48 67/79/49 
f 67/79/49 68/80/50 65/77/47 
f 68/80/50 67/79/49 69/81/51 
f 69/81/51 70/82/52 68/80/50 
f 71/83/53 72/84/54 62/74/44 
f 62/74/44 61/73/43 71/83/53 
f 73/85/1 74/86/1 75/87/1 
f 75/87/1 76/88/1 73/85/1 
f 77/89/55 78/90/56 64/76/46 
f 64/76/46 63/75/45 77/89/55 
f 66/78/48 65/77/47 79/91/57 
f 79/91/57 80/92/58 66/78/48 
f 81/93/59 82/94/60 83/95/60 
f 83/95/60 84/96/59 81/93/59 
f 13/71/61 1/1/62 4/4/62 
f 4/4/62 23/97/61 13/71/61 
f 28/98/21 83/95/42 1/1/42 
f 1/1/42 12/72/9 28/98/21 
f 16/99/13 23/97/16 4/4/63 
f 30/30/23 25/25/18 28/28/21 
f 28/28/21 12/12/9 30/30/23 
f 71/83/53 61/73/43 64/76/46 
f 64/76/46 78/90/56 71/83/53 
f 53/63/34 54/64/35 59/69/40 
f 59/69/40 60/70/41 53/63/34 
f 76/88/1 19/19/1 22/22/1 
f 22/22/1 73/85/1 76/88/1 
f 48/50/64 85/100/64 25/101/18 
f 25/101/18 30/102/23 48/50/64 
f 65/77/47 68/80/50 70/82/52 
f 70/82/52 79/91/57 65/77/47 
f 11/56/8 6/53/3 27/52/20 
f 27/52/20 15/57/12 11/56/8 
f 52/62/65 86/103/65 7/104/4 
f 7/104/4 18/105/15 52/62/65 
f 50/106/6 6/6/3 87/107/66 
f 28/28/21 27/27/20 88/108/67 
f 88/108/67 84/109/10 28/28/21 
f 56/66/37 57/67/38 58/68/39 
f 58/68/39 55/65/36 56/66/37 
f 47/49/68 89/110/68 85/100/64 
f 85/100/64 48/50/64 47/49/68 
f 29/111/22 26/112/19 89/110/68 
f 89/110/68 47/49/68 29/111/22 
f 87/113/69 81/114/59 84/115/59 
f 84/115/59 88/116/69 87/113/69 
f 5/5/2 81/117/16 87/107/66 
f 87/107/66 6/6/3 5/5/2 
f 49/118/17 88/108/67 27/27/20 
f 50/54/6 87/119/66 88/120/67 
f 88/120/67 49/51/17 50/54/6 
f 14/121/70 13/122/61 23/123/61 
f 23/123/61 10/124/70 14/121/70 
f 14/125/11 10/126/7 9/55/6 
f 9/55/6 24/58/17 14/125/11 
f 8/127/5 90/128/71 51/61/71 
f 51/61/71 17/129/14 8/127/5 
f 26/26/19 29/29/22 15/15/12 
f 15/15/12 27/27/20 26/26/19 
f 90/128/71 86/103/65 52/62/65 
f 52/62/65 51/61/71 90/128/71 
f 22/22/24 21/21/24 91/130/24 
f 91/130/24 92/131/24 22/22/24 
f 25/132/24 85/100/24 89/110/24 
f 89/110/24 26/133/24 25/132/24 
f 73/85/72 22/22/72 92/134/72 
f 92/134/72 3/135/72 73/85/72 
f 2/136/73 91/137/73 21/21/73 
f 21/21/73 74/86/73 2/136/73 
f 7/138/24 86/103/24 90/128/24 
f 90/128/24 8/139/24 7/138/24 
f 2/140/27 74/86/27 73/85/27 
f 73/85/27 3/141/27 2/140/27 
f 93/142/74 19/143/74 76/144/74 
f 76/144/74 94/145/74 93/142/74 
f 84/96/10 83/95/42 28/98/21 
f 82/94/1 92/146/1 91/147/1 
f 91/147/1 83/95/1 82/94/1 
f 91/148/1 2/149/1 1/1/1 
f 1/1/1 83/95/1 91/148/1 
f 94/145/24 76/150/24 75/151/24 
f 75/151/24 95/152/24 94/145/24 
f 96/153/27 20/154/27 19/155/27 
f 19/155/27 93/142/27 96/153/27 
f 95/152/72 75/156/72 20/157/72 
f 20/157/72 96/153/72 95/152/72 
f 96/153/1 93/142/1 94/145/1 
f 94/145/1 95/152/1 96/153/1 
f 97/158/75 98/159/76 99/160/76 
f 99/160/76 100/161/75 97/158/75 
f 101/162/77 97/158/75 100/161/75 
f 100/161/75 102/163/77 101/162/77 
f 20/20/1 75/87/1 74/86/1 
f 74/86/1 21/21/1 20/20/1 
f 34/164/78 101/162/77 102/163/77 
f 102/163/77 103/165/78 34/164/78 
f 104/166/79 105/167/80 106/168/80 
f 106/168/80 107/169/79 104/166/79 
f 5/170/2 82/94/63 81/93/16 
f 31/171/81 34/164/78 103/165/78 
f 103/165/78 108/172/81 31/171/81 
f 105/167/80 109/173/82 110/174/82 
f 110/174/82 106/168/80 105/167/80 
f 111/175/83 31/171/81 108/172/81 
f 108/172/81 112/176/83 111/175/83 
f 109/173/82 39/177/84 113/178/84 
f 113/178/84 110/174/82 109/173/82 
f 11/11/8 18/18/15 7/7/4 
f 7/7/4 6/6/3 11/11/8 
f 114/179/85 111/175/83 112/176/83 
f 112/176/83 115/180/85 114/179/85 
f 39/177/84 42/181/86 116/182/86 
f 116/182/86 113/178/84 39/177/84 
f 117/183/87 114/179/85 115/180/85 
f 115/180/85 118/184/87 117/183/87 
f 42/181/86 119/185/88 120/186/88 
f 120/186/88 116/182/86 42/181/86 
f 4/4/1 3/187/1 92/188/1 
f 92/188/1 82/94/1 4/4/1 
f 4/4/63 82/94/63 5/170/2 
f 5/170/2 16/99/13 4/4/63 
f 121/189/89 117/183/87 118/184/87 
f 118/184/87 122/190/89 121/189/89 
f 119/185/88 123/191/90 124/192/90 
f 124/192/90 120/186/88 119/185/88 
f 125/193/91 121/189/89 122/190/89 
f 122/190/89 126/194/91 125/193/91 
f 123/191/90 127/195/92 128/196/92 
f 128/196/92 124/192/90 123/191/90 
f 129/197/93 125/193/91 126/194/91 
f 126/194/91 130/198/93 129/197/93 
f 127/195/92 131/199/94 132/200/94 
f 132/200/94 128/196/92 127/195/92 
f 131/199/94 129/197/93 130/198/93 
f 130/198/93 132/200/94 131/199/94 
f 133/201/80 134/202/80 135/203/79 
f 135/203/79 136/204/79 133/201/80 
f 133/201/80 137/205/82 138/206/82 
f 138/206/82 134/202/80 133/201/80 
f 137/205/82 139/207/84 46/208/84 
f 46/208/84 138/206/82 137/205/82 
f 140/209/75 141/210/76 142/211/76 
f 142/211/76 143/212/75 140/209/75 
f 139/207/84 144/213/86 43/214/86 
f 43/214/86 46/208/84 139/207/84 
f 145/215/77 140/209/75 143/212/75 
f 143/212/75 146/216/77 145/215/77 
f 144/213/86 147/217/88 148/218/88 
f 148/218/88 43/214/86 144/213/86 
f 149/219/78 145/215/77 146/216/77 
f 146/216/77 35/220/78 149/219/78 
f 147/217/88 150/221/90 151/222/90 
f 151/222/90 148/218/88 147/217/88 
f 152/223/81 149/219/78 35/220/78 
f 35/220/78 38/224/81 152/223/81 
f 150/221/90 153/225/92 154/226/92 
f 154/226/92 151/222/90 150/221/90 
f 155/227/83 152/223/81 38/224/81 
f 38/224/81 156/228/83 155/227/83 
f 153/225/92 157/229/94 158/230/94 
f 158/230/94 154/226/92 153/225/92 
f 159/231/85 155/227/83 156/228/83 
f 156/228/83 160/232/85 159/231/85 
f 157/229/94 161/233/93 162/234/93 
f 162/234/93 158/230/94 157/229/94 
f 163/235/87 159/231/85 160/232/85 
f 160/232/85 164/236/87 163/235/87 
f 161/233/93 165/237/91 166/238/91 
f 166/238/91 162/234/93 161/233/93 
f 167/239/89 163/235/87 164/236/87 
f 164/236/87 168/240/89 167/239/89 
f 165/237/91 167/239/89 168/240/89 
f 168/240/89 166/238/91 165/237/91 
f 141/241/1 169/242/1 36/243/95 
f 36/243/95 142/244/1 141/241/1 
f 45/45/95 53/63/34 60/70/41 
f 60/70/41 36/36/95 45/45/95 
f 135/245/1 45/246/95 170/247/1 
f 170/247/1 136/248/1 135/245/1 
f 169/242/1 170/247/1 45/246/95 
f 45/246/95 36/243/95 169/242/1 
f 107/249/1 171/250/1 40/251/96 
f 40/251/96 104/252/1 107/249/1 
f 33/33/96 55/65/36 58/68/39 
f 58/68/39 40/40/96 33/33/96 
f 98/253/1 33/254/96 172/255/1 
f 172/255/1 99/256/1 98/253/1 
f 33/254/96 40/251/96 171/250/1 
f 171/250/1 172/255/1 33/254/96 
f 41/41/31 57/67/38 56/66/37 
f 56/66/37 32/32/25 41/41/31 
f 119/257/24 41/41/31 69/81/51 
f 69/81/51 123/258/24 119/257/24 
f 70/82/52 69/81/51 80/92/58 
f 80/92/58 79/91/57 70/82/52 
f 114/259/24 80/92/58 32/32/25 
f 32/32/25 111/260/24 114/259/24 
f 80/92/58 69/81/51 41/41/31 
f 41/41/31 32/32/25 80/92/58 
f 156/261/27 37/37/29 77/89/55 
f 77/89/55 160/262/27 156/261/27 
f 78/90/56 77/89/55 72/84/54 
f 72/84/54 71/83/53 78/90/56 
f 151/263/27 72/84/54 44/44/32 
f 44/44/32 148/264/27 151/263/27 
f 135/265/27 134/266/27 45/45/33 
f 37/37/29 59/69/40 54/64/35 
f 54/64/35 44/44/32 37/37/29 
f 44/44/32 72/84/54 77/89/55 
f 77/89/55 37/37/29 44/44/32 
f 160/262/27 77/89/55 63/75/45 
f 63/75/45 164/267/27 160/262/27 
f 154/268/27 158/269/27 62/74/44 
f 105/270/24 40/40/30 109/271/24 
f 109/271/24 40/40/30 39/39/24 
f 97/272/24 33/33/26 98/273/24 
f 101/274/24 33/33/26 97/272/24 
f 34/34/24 33/33/26 101/274/24 
f 42/42/24 41/41/31 119/257/24 
f 111/260/24 32/32/25 31/31/24 
f 123/258/24 69/81/51 67/79/49 
f 67/79/49 127/275/24 123/258/24 
f 125/276/24 66/78/48 121/277/24 
f 67/79/49 66/78/48 125/276/24 
f 125/276/24 129/278/24 67/79/49 
f 131/279/24 67/79/49 129/278/24 
f 121/277/24 66/78/48 117/280/24 
f 127/275/24 67/79/49 131/279/24 
f 66/78/48 80/92/58 114/259/24 
f 114/259/24 117/280/24 66/78/48 
f 104/281/24 40/40/30 105/270/24 
f 134/266/27 138/282/27 45/45/33 
f 138/282/27 46/46/27 45/45/33 
f 143/283/27 142/284/27 36/36/28 
f 146/285/27 143/283/27 36/36/28 
f 168/286/27 164/267/27 63/75/45 
f 158/269/27 162/287/27 62/74/44 
f 166/288/27 63/75/45 62/74/44 
f 62/74/44 162/287/27 166/288/27 
f 166/288/27 168/286/27 63/75/45 
f 35/35/27 146/285/27 36/36/28 
f 43/43/27 148/264/27 44/44/32 
f 62/74/44 72/84/54 151/263/27 
f 151/263/27 154/268/27 62/74/44 
f 156/261/27 38/38/27 37/37/29 
# 292 faces

